<?xml version="1.0" encoding="utf-8"?>
<!-- Generator: Adobe Illustrator 27.3.1, SVG Export Plug-In . SVG Version: 6.00 Build 0)  -->
<svg version="1.1" id="Layer_1" xmlns="http://www.w3.org/2000/svg" xmlns:xlink="http://www.w3.org/1999/xlink" x="0px" y="0px"
	 viewBox="0 0 80.5 20.1" style="enable-background:new 0 0 80.5 20.1;" xml:space="preserve">
<style type="text/css">
	.st0{fill:#FFFFFF;}
</style>
<g>
	<g>
		<path class="st0" d="M3.6,10.4L0,3.1h1.6l1.5,3.3C3.5,7.3,3.9,8.2,4.3,9h0.1c0.4-0.9,0.8-1.7,1.2-2.6l1.5-3.3h1.6l-3.6,7.2v4.6
			H3.6V10.4z"/>
		<path class="st0" d="M9.8,3.4c0-0.6,0.4-1,1-1s1,0.4,1,1s-0.4,1-1,1S9.8,4,9.8,3.4z M10.1,6.2h1.5V15h-1.5V6.2z"/>
		<path class="st0" d="M13.8,16.6c0-0.7,0.5-1.5,1.3-2v-0.1c-0.4-0.3-0.8-0.7-0.8-1.4s0.5-1.3,1-1.6v-0.1c-0.6-0.5-1.1-1.3-1.1-2.4
			c0-1.9,1.5-3.1,3.3-3.1c0.5,0,0.9,0.1,1.2,0.2h3.1v1.1H20c0.4,0.4,0.7,1.1,0.7,1.8c0,1.9-1.4,3-3.2,3c-0.4,0-0.9-0.1-1.3-0.3
			c-0.3,0.3-0.6,0.6-0.6,1c0,0.6,0.4,0.9,1.5,0.9h1.7c2,0,3.1,0.6,3.1,2.1c0,1.6-1.7,3-4.4,3C15.3,19,13.8,18.1,13.8,16.6z
			 M20.4,16.2c0-0.8-0.6-1.1-1.8-1.1h-1.5c-0.3,0-0.7,0-1.1-0.1c-0.6,0.4-0.9,1-0.9,1.5c0,0.9,0.9,1.5,2.5,1.5
			C19.3,17.9,20.4,17.1,20.4,16.2z M19.3,9.1c0-1.3-0.8-2-1.9-2s-1.9,0.8-1.9,2c0,1.3,0.9,2.1,1.9,2.1C18.5,11.2,19.3,10.4,19.3,9.1
			z"/>
		<path class="st0" d="M23.3,3.4c0-0.6,0.4-1,1-1s1,0.4,1,1s-0.4,1-1,1C23.7,4.4,23.3,4,23.3,3.4z M23.6,6.2H25V15h-1.5V6.2H23.6z"
			/>
		<path class="st0" d="M28.3,12.2V7.4H27V6.3l1.4-0.1l0.2-2.5h1.2v2.5h2.4v1.2h-2.4v4.9c0,1.1,0.3,1.7,1.4,1.7c0.3,0,0.7-0.1,1-0.2
			l0.3,1.1c-0.5,0.2-1.1,0.3-1.6,0.3C28.9,15.2,28.3,14,28.3,12.2z"/>
		<path class="st0" d="M40.2,3.1h1.7l4,11.8h-1.6l-2.1-6.6c-0.4-1.3-0.8-2.6-1.2-4h0c-0.4,1.4-0.7,2.7-1.2,4l-2.1,6.6h-1.5L40.2,3.1
			z M38.3,10.1h5.4v1.2h-5.4V10.1z"/>
		<path class="st0" d="M47.5,2.1H49v8.7l0,0l3.7-4.6h1.6l-2.9,3.5l3.3,5.2h-1.6l-2.6-4.2l-1.6,1.9v2.3h-1.5L47.5,2.1L47.5,2.1z"/>
		<path class="st0" d="M55.4,13.9l0.7-1c0.8,0.6,1.5,1,2.6,1s1.7-0.6,1.7-1.4c0-0.9-1-1.3-2-1.7c-1.2-0.4-2.6-1.1-2.6-2.5
			s1.1-2.5,3-2.5c1.1,0,2,0.4,2.7,1l-0.7,0.9c-0.6-0.4-1.2-0.8-2-0.8c-1.1,0-1.6,0.6-1.6,1.3c0,0.8,1,1.1,1.9,1.5
			c1.3,0.5,2.7,1,2.7,2.7c0,1.4-1.1,2.6-3.2,2.6C57.4,15.2,56.2,14.6,55.4,13.9z"/>
		<path class="st0" d="M63.3,10.6c0-2.9,1.9-4.6,4.1-4.6s4.1,1.7,4.1,4.6s-1.9,4.6-4.1,4.6S63.3,13.5,63.3,10.6z M69.9,10.6
			c0-2-1-3.4-2.5-3.4s-2.5,1.4-2.5,3.4s1,3.3,2.5,3.3C68.8,13.9,69.9,12.6,69.9,10.6z"/>
		<path class="st0" d="M72.8,18.5l0.3-1.2c0.2,0.1,0.4,0.1,0.7,0.1c1,0,1.6-0.8,2-1.9l0.2-0.6l-3.5-8.8H74l1.8,4.8
			c0.3,0.8,0.6,1.7,0.9,2.5h0.1c0.2-0.8,0.5-1.7,0.7-2.5l1.6-4.8h1.5l-3.3,9.5c-0.6,1.7-1.5,3.1-3.3,3.1
			C73.4,18.7,73.1,18.6,72.8,18.5z"/>
	</g>
</g>
</svg>
